<svg fill="none" height="61" viewBox="0 0 60 61" width="60" xmlns="http://www.w3.org/2000/svg" xmlns:xlink="http://www.w3.org/1999/xlink"><clipPath id="a"><path d="m0 0h60v60h-60z" transform="matrix(1 0 0 -1 0 60.1904)"/></clipPath><g clip-path="url(#a)"><path d="m55.7143 20.1459c0-1.8081-.24-3.4041-.7199-4.788s-1.0937-2.4832-1.8415-3.298c-.7478-.8147-1.6574-1.4788-2.7288-1.9922-1.0714-.51336-2.1205-.85934-3.1473-1.03791s-2.1206-.26786-3.2813-.26786-2.4107.2846-3.75.85379c-1.3393.56918-2.5725 1.28348-3.6997 2.14288-1.1273.8594-2.0927 1.6629-2.8962 2.4107-.8036.7478-1.4733 1.4341-2.009 2.0591-.4018.4911-.9486.7367-1.6406.7367s-1.2388-.2456-1.6406-.7367c-.5357-.625-1.2054-1.3113-2.009-2.0591-.8035-.7478-1.7689-1.5513-2.8962-2.4107-1.1272-.8594-2.3604-1.5737-3.6997-2.14288-1.3393-.56919-2.5893-.85379-3.75-.85379-1.1608 0-2.2545.08929-3.2813.26786s-2.0759.52455-3.14731 1.03791c-1.07143.5134-1.98102 1.1775-2.72879 1.9922-.74777.8148-1.36161 1.9141-1.84152 3.298s-.71987 2.9799-.71987 4.788c0 3.75 2.08706 7.712 6.26119 11.8861l19.4531 18.75 19.4196-18.7165c4.1965-4.1964 6.2947-8.1696 6.2947-11.9196zm4.2857 0c0 4.933-2.5558 9.9553-7.6674 15.0669l-20.8594 20.0893c-.4018.4018-.8928.6027-1.4732.6027s-1.0714-.2009-1.4732-.6027l-20.89287-20.1562c-.22322-.1786-.53014-.4688-.92076-.8706-.39063-.4018-1.01005-1.1328-1.85826-2.1931-.84821-1.0602-1.60714-2.1484-2.27679-3.2645-.66964-1.116-1.26674-2.4665-1.79129-4.0513-.524553-1.5848-.78683-3.125-.78683-4.6205 0-4.9108 1.41741-8.75 4.25223-11.5179 2.83482-2.76785 6.75227-4.15178 11.75227-4.15178 1.3839 0 2.7957.23995 4.2355.71986 1.4397.47991 2.779 1.12723 4.0178 1.94197 1.2389.81473 2.3047 1.57924 3.1976 2.29352.8928.71433 1.741 1.47323 2.5446 2.27683.8036-.8036 1.6518-1.5625 2.5446-2.27683.8929-.71428 1.9587-1.47879 3.1976-2.29352 1.2388-.81474 2.5781-1.46206 4.0178-1.94197 1.4398-.47991 2.8516-.71986 4.2355-.71986 5 0 8.9174 1.38393 11.7523 4.15178 2.8348 2.7679 4.2522 6.6071 4.2522 11.5179z" fill="#fff"/></g></svg>