<svg fill="none" height="61" viewBox="0 0 60 61" width="60" xmlns="http://www.w3.org/2000/svg" xmlns:xlink="http://www.w3.org/1999/xlink"><clipPath id="a"><path d="m0 0h60v60h-60z" transform="matrix(1 0 0 -1 0 60.1904)"/></clipPath><g clip-path="url(#a)"><path d="m59.0625.558735c.7366.535715 1.0379 1.249995.904 2.142855l-8.5714 51.42861c-.1116.6473-.4688 1.1495-1.0714 1.5067-.3125.1785-.6585.2678-1.038.2678-.2455 0-.5134-.0558-.8036-.1674l-17.6451-7.1987-9.9776 10.9487c-.4018.4688-.9264.7031-1.5737.7031-.3125 0-.5692-.0446-.7701-.1339-.4241-.1562-.7589-.4185-1.0044-.7868-.2456-.3683-.3683-.7757-.3683-1.2221v-15.134l-15.80362-6.462c-.825892-.3125-1.2723203-.9263-1.33928459-1.8415-.06696431-.8706.29017859-1.529 1.07142459-1.9755l55.71428-32.142828c.7813-.4687503 1.5402-.4464305 2.2768.066963zm-11.4509 50.189765 7.3996-44.29691-48.01344 27.68971 11.25004 4.5871 28.895-21.3951-16.0044 26.6853z" fill="#fff"/></g></svg>