<svg fill="none" height="29" viewBox="0 0 24 29" width="24" xmlns="http://www.w3.org/2000/svg"><path d="m24 21.2505v2c0 .2708-.099.5052-.2969.7031s-.4323.2969-.7031.2969h-22c-.270833 0-.505208-.099-.703125-.2969-.1979167-.1979-.296875-.4323-.296875-.7031v-2c0-.2708.0989583-.5052.296875-.7031.197917-.198.432292-.2969.703125-.2969h22c.2708 0 .5052.0989.7031.2969.1979.1979.2969.4323.2969.7031zm0-8v2c0 .2708-.099.5052-.2969.7031s-.4323.2969-.7031.2969h-22c-.270833 0-.505208-.099-.703125-.2969-.1979167-.1979-.296875-.4323-.296875-.7031v-2c0-.2708.0989583-.5052.296875-.7031.197917-.198.432292-.2969.703125-.2969h22c.2708 0 .5052.0989.7031.2969.1979.1979.2969.4323.2969.7031zm0-8.00001v2c0 .27083-.099.50521-.2969.70312-.1979.19792-.4323.29688-.7031.29688h-22c-.270833 0-.505208-.09896-.703125-.29688-.1979167-.19791-.296875-.43229-.296875-.70312v-2c0-.27084.0989583-.50521.296875-.70313.197917-.19791.432292-.29687.703125-.29687h22c.2708 0 .5052.09896.7031.29687.1979.19792.2969.43229.2969.70313z" fill="#fff"/></svg>