<svg fill="none" height="61" viewBox="0 0 60 61" width="60" xmlns="http://www.w3.org/2000/svg" xmlns:xlink="http://www.w3.org/1999/xlink"><clipPath id="a"><path d="m0 0h60v60h-60z" transform="matrix(1 0 0 -1 0 60.1904)"/></clipPath><g clip-path="url(#a)"><path d="m30.7701 28.8177s.0502-.0502.1507-.1506c.1004-.1005.1506-.307.1506-.6195s-.1004-.5692-.3013-.77c-.2009-.2009-.4576-.3014-.7701-.3014-1.4732 0-2.7344.5246-3.7835 1.5737s-1.5736 2.3102-1.5736 3.7835c0 .3125.1004.5692.3013.77.2009.2009.4576.3014.7701.3014s.5692-.1005.7701-.3014c.2009-.2008.3013-.4575.3013-.77 0-.8929.3125-1.6518.9375-2.2768s1.3839-.9375 2.2768-.9375c.3125 0 .5692-.1005.7701-.3014zm5.2902-2.4776s.4185.4185 1.2555 1.2555c.8371.8371 1.2556 2.4387 1.2556 4.8047 0 2.3661-.837 4.3862-2.5111 6.0603s-3.6942 2.5112-6.0603 2.5112-4.3862-.8371-6.0603-2.5112-2.5111-3.6942-2.5111-6.0603c0-2.366.837-4.3861 2.5111-6.0602 1.6741-1.6742 3.6942-2.5112 6.0603-2.5112s4.3862.837 6.0603 2.5112zm-31.77459 25.279h51.42859v-4.2857h-51.42859zm34.80469-10.1284s.6278-.6278 1.8834-1.8833c1.2556-1.2556 1.8833-3.658 1.8833-7.2071s-1.2555-6.5792-3.7667-9.0904c-2.5112-2.5111-5.5413-3.7667-9.0904-3.7667s-6.5792 1.2556-9.0904 3.7667c-2.5112 2.5112-3.7667 5.5413-3.7667 9.0904s1.2555 6.5793 3.7667 9.0904c2.5112 2.5112 5.5413 3.7668 9.0904 3.7668s6.5792-1.2556 9.0904-3.7668zm-30.51897-30.5859h12.85717v-4.28573h-12.85717zm-4.28572 6.4286h51.42859v-3.9509-4.62057h-27.7232l-2.1429 4.28567h-21.56249zm55.71429-8.57147v42.85717c0 1.183-.4185 2.1931-1.2556 3.0301-.837.8371-1.8471 1.2556-3.0301 1.2556h-51.42859c-1.18303 0-2.19308-.4185-3.03013-1.2556-.837053-.837-1.25558-1.8471-1.25558-3.0301v-42.85717c0-1.18303.418527-2.19308 1.25558-3.03013.83705-.83706 1.8471-1.25558 3.03013-1.25558h51.42859c1.183 0 2.1931.41852 3.0301 1.25558.8371.83705 1.2556 1.8471 1.2556 3.03013z" fill="#fff"/></g></svg>